{
  "accessors": [
    {
      "bufferView": 2,
      "componentType": 5126,
      "count": 4069,
      "max": [
        765.628173828125,
        949.91796875,
        348.8149108886719
      ],
      "min": [
        -503.16217041015625,
        154.55677795410156,
        -555.0362548828125
      ],
      "type": "VEC3"
    },
    {
      "bufferView": 2,
      "byteOffset": 48828,
      "componentType": 5126,
      "count": 4069,
      "max": [
        1.0,
        1.0,
        1.0
      ],
      "min": [
        -1.0,
        -1.0,
        -1.0
      ],
      "type": "VEC3"
    },
    {
      "bufferView": 1,
      "componentType": 5126,
      "count": 4069,
      "max": [
        0.9956585168838501,
        3.1028404235839844
      ],
      "min": [
        -2.2247390747070313,
        0.0
      ],
      "type": "VEC2"
    },
    {
      "bufferView": 1,
      "byteOffset": 32552,
      "componentType": 5126,
      "count": 4069,
      "max": [
        0.9956585168838501,
        0.9828208684921265
      ],
      "min": [
        0.0,
        0.0
      ],
      "type": "VEC2"
    },
    {
      "bufferView": 1,
      "byteOffset": 65104,
      "componentType": 5126,
      "count": 4069,
      "max": [
        0.3725360631942749,
        1.007554292678833
      ],
      "min": [
        -0.9946095943450928,
        0.0
      ],
      "type": "VEC2"
    },
    {
      "bufferView": 1,
      "byteOffset": 97656,
      "componentType": 5126,
      "count": 4069,
      "max": [
        0.0,
        0.0
      ],
      "min": [
        0.0,
        0.0
      ],
      "type": "VEC2"
    },
    {
      "bufferView": 1,
      "byteOffset": 130208,
      "componentType": 5126,
      "count": 4069,
      "max": [
        2.152721643447876,
        0.8074805736541748
      ],
      "min": [
        0.0,
        -0.04880586266517639
      ],
      "type": "VEC2"
    },
    {
      "bufferView": 1,
      "byteOffset": 162760,
      "componentType": 5126,
      "count": 4069,
      "max": [
        1.3081920146942139,
        0.9289746284484863
      ],
      "min": [
        0.0,
        0.0
      ],
      "type": "VEC2"
    },
    {
      "bufferView": 1,
      "byteOffset": 195312,
      "componentType": 5126,
      "count": 4069,
      "max": [
        1.4479219913482666,
        1.130589485168457
      ],
      "min": [
        0.0,
        -0.7040748000144958
      ],
      "type": "VEC2"
    },
    {
      "bufferView": 1,
      "byteOffset": 227864,
      "componentType": 5126,
      "count": 4069,
      "max": [
        0.4620780646800995,
        1.1039869785308838
      ],
      "min": [
        0.0,
        -0.22668203711509705
      ],
      "type": "VEC2"
    },
    {
      "bufferView": 1,
      "byteOffset": 260416,
      "componentType": 5126,
      "count": 4069,
      "max": [
        0.5422326326370239,
        1.0
      ],
      "min": [
        0.0,
        0.0
      ],
      "type": "VEC2"
    },
    {
      "bufferView": 1,
      "byteOffset": 292968,
      "componentType": 5126,
      "count": 4069,
      "max": [
        0.16511479020118713,
        0.9631723761558533
      ],
      "min": [
        -0.04752735793590546,
        0.0
      ],
      "type": "VEC2"
    },
    {
      "bufferView": 0,
      "componentType": 5125,
      "count": 7668,
      "type": "SCALAR"
    },
    {
      "bufferView": 2,
      "byteOffset": 97656,
      "componentType": 5126,
      "count": 233,
      "max": [
        765.628173828125,
        884.7949829101563,
        328.506591796875
      ],
      "min": [
        -483.06280517578125,
        376.15142822265625,
        -541.899169921875
      ],
      "type": "VEC3"
    },
    {
      "bufferView": 2,
      "byteOffset": 100452,
      "componentType": 5126,
      "count": 233,
      "max": [
        0.9882149696350098,
        0.9295889139175415,
        0.863693118095398
      ],
      "min": [
        -1.0,
        -0.9295889735221863,
        -0.9999852776527405
      ],
      "type": "VEC3"
    },
    {
      "bufferView": 1,
      "byteOffset": 325520,
      "componentType": 5126,
      "count": 233,
      "max": [
        1.7428054809570313,
        9.496307373046875
      ],
      "min": [
        -1.6981303691864014,
        -1.5974071025848389
      ],
      "type": "VEC2"
    },
    {
      "bufferView": 1,
      "byteOffset": 327384,
      "componentType": 5126,
      "count": 233,
      "max": [
        0.0,
        0.0
      ],
      "min": [
        0.0,
        0.0
      ],
      "type": "VEC2"
    },
    {
      "bufferView": 1,
      "byteOffset": 329248,
      "componentType": 5126,
      "count": 233,
      "max": [
        0.0,
        0.0
      ],
      "min": [
        0.0,
        0.0
      ],
      "type": "VEC2"
    },
    {
      "bufferView": 1,
      "byteOffset": 331112,
      "componentType": 5126,
      "count": 233,
      "max": [
        1.2830201387405396,
        3.1064579486846924
      ],
      "min": [
        -0.5178056359291077,
        -0.8609200716018677
      ],
      "type": "VEC2"
    },
    {
      "bufferView": 1,
      "byteOffset": 332976,
      "componentType": 5126,
      "count": 233,
      "max": [
        0.0,
        0.0
      ],
      "min": [
        0.0,
        0.0
      ],
      "type": "VEC2"
    },
    {
      "bufferView": 1,
      "byteOffset": 334840,
      "componentType": 5126,
      "count": 233,
      "max": [
        0.3381968140602112,
        8.043521881103516
      ],
      "min": [
        -0.9963903427124023,
        0.0
      ],
      "type": "VEC2"
    },
    {
      "bufferView": 1,
      "byteOffset": 336704,
      "componentType": 5126,
      "count": 233,
      "max": [
        0.0,
        1.0094352960586548
      ],
      "min": [
        -2.0204739570617676,
        0.0
      ],
      "type": "VEC2"
    },
    {
      "bufferView": 1,
      "byteOffset": 338568,
      "componentType": 5126,
      "count": 233,
      "max": [
        0.7286409735679626,
        1.8840869665145874
      ],
      "min": [
        0.0,
        0.0
      ],
      "type": "VEC2"
    },
    {
      "bufferView": 1,
      "byteOffset": 340432,
      "componentType": 5126,
      "count": 233,
      "max": [
        0.0,
        0.0
      ],
      "min": [
        0.0,
        0.0
      ],
      "type": "VEC2"
    },
    {
      "bufferView": 1,
      "byteOffset": 342296,
      "componentType": 5126,
      "count": 233,
      "max": [
        0.0,
        0.0
      ],
      "min": [
        0.0,
        0.0
      ],
      "type": "VEC2"
    },
    {
      "bufferView": 0,
      "byteOffset": 30672,
      "componentType": 5125,
      "count": 357,
      "type": "SCALAR"
    },
    {
      "bufferView": 2,
      "byteOffset": 103248,
      "componentType": 5126,
      "count": 293,
      "max": [
        759.4019165039063,
        191.60804748535156,
        320.1717834472656
      ],
      "min": [
        -472.9672546386719,
        -7.464902877807617,
        -521.4903564453125
      ],
      "type": "VEC3"
    },
    {
      "bufferView": 2,
      "byteOffset": 106764,
      "componentType": 5126,
      "count": 293,
      "max": [
        1.0,
        1.0,
        1.0
      ],
      "min": [
        -1.0,
        -1.0,
        -1.0
      ],
      "type": "VEC3"
    },
    {
      "bufferView": 1,
      "byteOffset": 344160,
      "componentType": 5126,
      "count": 293,
      "max": [
        13.287606239318848,
        1.2561404705047607
      ],
      "min": [
        -12.927825927734375,
        -2.086174488067627
      ],
      "type": "VEC2"
    },
    {
      "bufferView": 1,
      "byteOffset": 346504,
      "componentType": 5126,
      "count": 293,
      "max": [
        0.0,
        0.0
      ],
      "min": [
        0.0,
        0.0
      ],
      "type": "VEC2"
    },
    {
      "bufferView": 1,
      "byteOffset": 348848,
      "componentType": 5126,
      "count": 293,
      "max": [
        0.0,
        0.0
      ],
      "min": [
        0.0,
        0.0
      ],
      "type": "VEC2"
    },
    {
      "bufferView": 1,
      "byteOffset": 351192,
      "componentType": 5126,
      "count": 293,
      "max": [
        0.0,
        0.0
      ],
      "min": [
        0.0,
        0.0
      ],
      "type": "VEC2"
    },
    {
      "bufferView": 1,
      "byteOffset": 353536,
      "componentType": 5126,
      "count": 293,
      "max": [
        0.0,
        0.0
      ],
      "min": [
        0.0,
        0.0
      ],
      "type": "VEC2"
    },
    {
      "bufferView": 1,
      "byteOffset": 355880,
      "componentType": 5126,
      "count": 293,
      "max": [
        0.0,
        0.0
      ],
      "min": [
        0.0,
        0.0
      ],
      "type": "VEC2"
    },
    {
      "bufferView": 1,
      "byteOffset": 358224,
      "componentType": 5126,
      "count": 293,
      "max": [
        0.0,
        0.0
      ],
      "min": [
        0.0,
        0.0
      ],
      "type": "VEC2"
    },
    {
      "bufferView": 1,
      "byteOffset": 360568,
      "componentType": 5126,
      "count": 293,
      "max": [
        0.0,
        0.0
      ],
      "min": [
        0.0,
        0.0
      ],
      "type": "VEC2"
    },
    {
      "bufferView": 1,
      "byteOffset": 362912,
      "componentType": 5126,
      "count": 293,
      "max": [
        0.0,
        0.0
      ],
      "min": [
        0.0,
        0.0
      ],
      "type": "VEC2"
    },
    {
      "bufferView": 1,
      "byteOffset": 365256,
      "componentType": 5126,
      "count": 293,
      "max": [
        0.0,
        0.0
      ],
      "min": [
        0.0,
        0.0
      ],
      "type": "VEC2"
    },
    {
      "bufferView": 0,
      "byteOffset": 32100,
      "componentType": 5125,
      "count": 519,
      "type": "SCALAR"
    },
    {
      "bufferView": 2,
      "byteOffset": 110280,
      "componentType": 5126,
      "count": 656,
      "max": [
        757.2681274414063,
        862.8138427734375,
        304.72406005859375
      ],
      "min": [
        -475.0866394042969,
        177.09274291992188,
        -526.2459106445313
      ],
      "type": "VEC3"
    },
    {
      "bufferView": 2,
      "byteOffset": 118152,
      "componentType": 5126,
      "count": 656,
      "max": [
        1.0,
        1.0,
        1.0
      ],
      "min": [
        -1.0,
        -1.0,
        -1.0
      ],
      "type": "VEC3"
    },
    {
      "bufferView": 1,
      "byteOffset": 367600,
      "componentType": 5126,
      "count": 656,
      "max": [
        6.000061511993408,
        3.1389880180358887
      ],
      "min": [
        -4.235126972198486,
        -2.8402490615844727
      ],
      "type": "VEC2"
    },
    {
      "bufferView": 1,
      "byteOffset": 372848,
      "componentType": 5126,
      "count": 656,
      "max": [
        1.0,
        1.0
      ],
      "min": [
        0.0,
        0.0
      ],
      "type": "VEC2"
    },
    {
      "bufferView": 1,
      "byteOffset": 378096,
      "componentType": 5126,
      "count": 656,
      "max": [
        1.0,
        6.955852031707764
      ],
      "min": [
        0.0,
        0.0
      ],
      "type": "VEC2"
    },
    {
      "bufferView": 1,
      "byteOffset": 383344,
      "componentType": 5126,
      "count": 656,
      "max": [
        1.0,
        1.0
      ],
      "min": [
        0.0,
        0.0
      ],
      "type": "VEC2"
    },
    {
      "bufferView": 1,
      "byteOffset": 388592,
      "componentType": 5126,
      "count": 656,
      "max": [
        1.0,
        1.0
      ],
      "min": [
        0.0,
        0.0
      ],
      "type": "VEC2"
    },
    {
      "bufferView": 1,
      "byteOffset": 393840,
      "componentType": 5126,
      "count": 656,
      "max": [
        1.0,
        1.0
      ],
      "min": [
        0.0,
        0.0
      ],
      "type": "VEC2"
    },
    {
      "bufferView": 1,
      "byteOffset": 399088,
      "componentType": 5126,
      "count": 656,
      "max": [
        2.7643120288848877,
        1.80408775806427
      ],
      "min": [
        -4.235126972198486,
        -0.2812787890434265
      ],
      "type": "VEC2"
    },
    {
      "bufferView": 1,
      "byteOffset": 404336,
      "componentType": 5126,
      "count": 656,
      "max": [
        1.0,
        1.0
      ],
      "min": [
        0.0,
        0.0
      ],
      "type": "VEC2"
    },
    {
      "bufferView": 1,
      "byteOffset": 409584,
      "componentType": 5126,
      "count": 656,
      "max": [
        1.0,
        1.0
      ],
      "min": [
        0.0,
        0.0
      ],
      "type": "VEC2"
    },
    {
      "bufferView": 1,
      "byteOffset": 414832,
      "componentType": 5126,
      "count": 656,
      "max": [
        1.2391033172607422,
        1.1900049448013306
      ],
      "min": [
        0.0,
        0.0
      ],
      "type": "VEC2"
    },
    {
      "bufferView": 0,
      "byteOffset": 34176,
      "componentType": 5125,
      "count": 1152,
      "type": "SCALAR"
    },
    {
      "bufferView": 2,
      "byteOffset": 126024,
      "componentType": 5126,
      "count": 32,
      "max": [
        753.31982421875,
        664.766357421875,
        43.0281982421875
      ],
      "min": [
        -378.17626953125,
        180.98263549804688,
        -524.057861328125
      ],
      "type": "VEC3"
    },
    {
      "bufferView": 2,
      "byteOffset": 126408,
      "componentType": 5126,
      "count": 32,
      "max": [
        0.9961463809013367,
        0.9996264576911926,
        0.08363629877567291
      ],
      "min": [
        -0.998997688293457,
        -0.9976679086685181,
        -0.0360308438539505
      ],
      "type": "VEC3"
    },
    {
      "bufferView": 1,
      "byteOffset": 420080,
      "componentType": 5126,
      "count": 32,
      "max": [
        1.0,
        1.0
      ],
      "min": [
        0.0,
        0.0
      ],
      "type": "VEC2"
    },
    {
      "bufferView": 1,
      "byteOffset": 420336,
      "componentType": 5126,
      "count": 32,
      "max": [
        0.0,
        0.0
      ],
      "min": [
        0.0,
        0.0
      ],
      "type": "VEC2"
    },
    {
      "bufferView": 1,
      "byteOffset": 420592,
      "componentType": 5126,
      "count": 32,
      "max": [
        0.0,
        0.0
      ],
      "min": [
        0.0,
        0.0
      ],
      "type": "VEC2"
    },
    {
      "bufferView": 1,
      "byteOffset": 420848,
      "componentType": 5126,
      "count": 32,
      "max": [
        0.0,
        0.0
      ],
      "min": [
        0.0,
        0.0
      ],
      "type": "VEC2"
    },
    {
      "bufferView": 1,
      "byteOffset": 421104,
      "componentType": 5126,
      "count": 32,
      "max": [
        0.0,
        0.0
      ],
      "min": [
        0.0,
        0.0
      ],
      "type": "VEC2"
    },
    {
      "bufferView": 1,
      "byteOffset": 421360,
      "componentType": 5126,
      "count": 32,
      "max": [
        0.0,
        0.0
      ],
      "min": [
        0.0,
        0.0
      ],
      "type": "VEC2"
    },
    {
      "bufferView": 1,
      "byteOffset": 421616,
      "componentType": 5126,
      "count": 32,
      "max": [
        0.0,
        0.0
      ],
      "min": [
        0.0,
        0.0
      ],
      "type": "VEC2"
    },
    {
      "bufferView": 1,
      "byteOffset": 421872,
      "componentType": 5126,
      "count": 32,
      "max": [
        0.0,
        0.0
      ],
      "min": [
        0.0,
        0.0
      ],
      "type": "VEC2"
    },
    {
      "bufferView": 1,
      "byteOffset": 422128,
      "componentType": 5126,
      "count": 32,
      "max": [
        0.0,
        0.0
      ],
      "min": [
        0.0,
        0.0
      ],
      "type": "VEC2"
    },
    {
      "bufferView": 1,
      "byteOffset": 422384,
      "componentType": 5126,
      "count": 32,
      "max": [
        0.0,
        0.0
      ],
      "min": [
        0.0,
        0.0
      ],
      "type": "VEC2"
    },
    {
      "bufferView": 0,
      "byteOffset": 38784,
      "componentType": 5125,
      "count": 48,
      "type": "SCALAR"
    }
  ],
  "asset": {
    "extras": {
      "author": "Johannes-Boas Diestel (https://sketchfab.com/EyesOnFire)",
      "license": "CC-BY-4.0 (http://creativecommons.org/licenses/by/4.0/)",
      "source": "https://sketchfab.com/3d-models/house-asset-f4ee8bbe544c4a188ca74212a9ba8ab9",
      "title": "House Asset"
    },
    "generator": "Sketchfab-14.64.0",
    "version": "2.0"
  },
  "bufferViews": [
    {
      "buffer": 0,
      "byteLength": 38976,
      "name": "floatBufferViews",
      "target": 34963
    },
    {
      "buffer": 0,
      "byteLength": 422640,
      "byteOffset": 38976,
      "byteStride": 8,
      "name": "floatBufferViews",
      "target": 34962
    },
    {
      "buffer": 0,
      "byteLength": 126792,
      "byteOffset": 461616,
      "byteStride": 12,
      "name": "floatBufferViews",
      "target": 34962
    }
  ],
  "buffers": [
    {
      "byteLength": 588408,
      "uri": "scene.bin"
    }
  ],
  "images": [
    {
      "uri": "textures/house_assets_baseColor.png"
    },
    {
      "uri": "textures/roof_baseColor.png"
    },
    {
      "uri": "textures/bricks_underneath1_baseColor.png"
    },
    {
      "uri": "textures/walls_baseColor.png"
    }
  ],
  "materials": [
    {
      "doubleSided": true,
      "name": "house_assets",
      "pbrMetallicRoughness": {
        "baseColorTexture": {
          "index": 0
        },
        "metallicFactor": 0.0,
        "roughnessFactor": 0.6
      }
    },
    {
      "doubleSided": true,
      "name": "roof",
      "pbrMetallicRoughness": {
        "baseColorTexture": {
          "index": 1
        },
        "metallicFactor": 0.0,
        "roughnessFactor": 0.6
      }
    },
    {
      "doubleSided": true,
      "name": "bricks_underneath1",
      "pbrMetallicRoughness": {
        "baseColorTexture": {
          "index": 2
        },
        "metallicFactor": 0.0,
        "roughnessFactor": 0.6
      }
    },
    {
      "doubleSided": true,
      "name": "walls",
      "pbrMetallicRoughness": {
        "baseColorTexture": {
          "index": 3
        },
        "metallicFactor": 0.0,
        "roughnessFactor": 0.6
      }
    },
    {
      "doubleSided": true,
      "name": "Default_Material",
      "pbrMetallicRoughness": {
        "baseColorFactor": [
          0.5,
          0.5,
          0.5,
          1.0
        ],
        "metallicFactor": 0.0,
        "roughnessFactor": 0.6
      }
    }
  ],
  "meshes": [
    {
      "name": "house_4_house_assets_0",
      "primitives": [
        {
          "attributes": {
            "NORMAL": 1,
            "POSITION": 0,
            "TEXCOORD_0": 2,
            "TEXCOORD_1": 3,
            "TEXCOORD_2": 4,
            "TEXCOORD_3": 5,
            "TEXCOORD_4": 6,
            "TEXCOORD_5": 7,
            "TEXCOORD_6": 8,
            "TEXCOORD_7": 9,
            "TEXCOORD_8": 10,
            "TEXCOORD_9": 11
          },
          "indices": 12,
          "material": 0,
          "mode": 4
        }
      ]
    },
    {
      "name": "house_4_roof_0",
      "primitives": [
        {
          "attributes": {
            "NORMAL": 14,
            "POSITION": 13,
            "TEXCOORD_0": 15,
            "TEXCOORD_1": 16,
            "TEXCOORD_2": 17,
            "TEXCOORD_3": 18,
            "TEXCOORD_4": 19,
            "TEXCOORD_5": 20,
            "TEXCOORD_6": 21,
            "TEXCOORD_7": 22,
            "TEXCOORD_8": 23,
            "TEXCOORD_9": 24
          },
          "indices": 25,
          "material": 1,
          "mode": 4
        }
      ]
    },
    {
      "name": "house_4_bricks_underneath1_0",
      "primitives": [
        {
          "attributes": {
            "NORMAL": 27,
            "POSITION": 26,
            "TEXCOORD_0": 28,
            "TEXCOORD_1": 29,
            "TEXCOORD_2": 30,
            "TEXCOORD_3": 31,
            "TEXCOORD_4": 32,
            "TEXCOORD_5": 33,
            "TEXCOORD_6": 34,
            "TEXCOORD_7": 35,
            "TEXCOORD_8": 36,
            "TEXCOORD_9": 37
          },
          "indices": 38,
          "material": 2,
          "mode": 4
        }
      ]
    },
    {
      "name": "house_4_walls_0",
      "primitives": [
        {
          "attributes": {
            "NORMAL": 40,
            "POSITION": 39,
            "TEXCOORD_0": 41,
            "TEXCOORD_1": 42,
            "TEXCOORD_2": 43,
            "TEXCOORD_3": 44,
            "TEXCOORD_4": 45,
            "TEXCOORD_5": 46,
            "TEXCOORD_6": 47,
            "TEXCOORD_7": 48,
            "TEXCOORD_8": 49,
            "TEXCOORD_9": 50
          },
          "indices": 51,
          "material": 3,
          "mode": 4
        }
      ]
    },
    {
      "name": "house_4_Default_Material_0",
      "primitives": [
        {
          "attributes": {
            "NORMAL": 53,
            "POSITION": 52,
            "TEXCOORD_0": 54,
            "TEXCOORD_1": 55,
            "TEXCOORD_2": 56,
            "TEXCOORD_3": 57,
            "TEXCOORD_4": 58,
            "TEXCOORD_5": 59,
            "TEXCOORD_6": 60,
            "TEXCOORD_7": 61,
            "TEXCOORD_8": 62,
            "TEXCOORD_9": 63
          },
          "indices": 64,
          "material": 4,
          "mode": 4
        }
      ]
    }
  ],
  "nodes": [
    {
      "children": [
        1
      ],
      "matrix": [
        1.0,
        0.0,
        0.0,
        0.0,
        0.0,
        2.220446049250313e-16,
        -1.0,
        0.0,
        0.0,
        1.0,
        2.220446049250313e-16,
        0.0,
        0.0,
        0.0,
        0.0,
        1.0
      ],
      "name": "Sketchfab_model"
    },
    {
      "children": [
        2
      ],
      "matrix": [
        0.009999999776482582,
        0.0,
        0.0,
        0.0,
        0.0,
        0.0,
        0.009999999776482582,
        0.0,
        0.0,
        -0.009999999776482582,
        0.0,
        0.0,
        0.0,
        0.0,
        0.0,
        1.0
      ],
      "name": "cc575d27e19e4df4bbeff60634e69c20.fbx"
    },
    {
      "children": [
        3
      ],
      "name": "RootNode"
    },
    {
      "children": [
        4,
        5,
        6,
        7,
        8
      ],
      "name": "house_4"
    },
    {
      "mesh": 0,
      "name": "house_4_house_assets_0"
    },
    {
      "mesh": 1,
      "name": "house_4_roof_0"
    },
    {
      "mesh": 2,
      "name": "house_4_bricks_underneath1_0"
    },
    {
      "mesh": 3,
      "name": "house_4_walls_0"
    },
    {
      "mesh": 4,
      "name": "house_4_Default_Material_0"
    }
  ],
  "samplers": [
    {
      "magFilter": 9729,
      "minFilter": 9987,
      "wrapS": 10497,
      "wrapT": 10497
    }
  ],
  "scene": 0,
  "scenes": [
    {
      "name": "Sketchfab_Scene",
      "nodes": [
        0
      ]
    }
  ],
  "textures": [
    {
      "sampler": 0,
      "source": 0
    },
    {
      "sampler": 0,
      "source": 1
    },
    {
      "sampler": 0,
      "source": 2
    },
    {
      "sampler": 0,
      "source": 3
    }
  ]
}
